<svg xmlns="http://www.w3.org/2000/svg" viewBox="0 0 512 512" style="height: 512px; width: 512px;"><g class="" transform="translate(0,0)" style=""><path d="M256 100c-8 0-16 4-32 12l10.848 32.543C179.665 147.226 112.76 160.04 98.68 183h314.625c-7.012-11.422-27.093-20.334-52.305-26.738V135h-18v17.266c-21.203-4.107-44.4-6.68-65.848-7.723L288 112c-16-8-24-12-32-12zM96 201v14H55v18h41v151c0 16 16 32 32 32h256c16 0 32-16 32-32V233h41v-18h-41v-14H96z" fill="#ffc225" fill-opacity="1"></path></g><g font-family="Arial, Helvetica, sans-serif" font-size="120" font-style="normal" font-weight="bold" text-anchor="middle" text-decoration=" rgba(255, 255, 255, 1)" class="" transform="translate(256,300)" style=""><g><text stroke="rgba(0, 0, 0, 1)" stroke-width="30"><tspan x="0" y="0">2</tspan></text><text fill="rgba(255, 255, 255, 1)"><tspan x="0" y="0">2</tspan></text></g></g></svg>