<?xml version="1.0" encoding="utf-8"?>
<!-- Generator: Adobe Illustrator 25.0.1, SVG Export Plug-In . SVG Version: 6.00 Build 0)  -->
<svg version="1.1" id="Layer_1" xmlns="http://www.w3.org/2000/svg" xmlns:xlink="http://www.w3.org/1999/xlink" x="0px" y="0px"
	 viewBox="0 0 360 360" style="enable-background:new 0 0 360 360;" xml:space="preserve">
<style type="text/css">
	.st0{fill:none;stroke:#FFC225;stroke-width:25;stroke-linecap:round;stroke-miterlimit:10;}
</style>
<path class="st0" d="M282.93,130.79v119.94c0,33.9-27.48,61.38-61.38,61.38h-83.09c-33.9,0-61.38-27.48-61.38-61.38V130.79
	c0-11.25,9.12-20.36,20.36-20.36h165.12C273.81,110.43,282.93,119.55,282.93,130.79z"/>
<path class="st0" d="M65.23,184.83c-10.38,0-18.8-8.42-18.8-18.8s8.42-18.8,18.8-18.8"/>
<path class="st0" d="M169.76,42.17c1.74-10.24,11.44-17.13,21.68-15.39c10.24,1.74,17.13,11.44,15.39,21.68"/>
<path class="st0" d="M295.43,147.23c10.38,0,18.8,8.42,18.8,18.8s-8.42,18.8-18.8,18.8"/>
<line class="st0" x1="274.45" y1="70.77" x2="100.26" y2="41.24"/>
</svg>
